<svg width="199" height="288" viewBox="0 0 199 288" fill="none" xmlns="http://www.w3.org/2000/svg">
<path d="M186.907 56.354C194.087 58.5187 199 65.1316 199 72.6303L199 122.669C199 130.024 194.27 136.545 187.278 138.829L22.2783 192.723C11.2894 196.313 -8.22315e-06 188.124 -7.71783e-06 176.563L-1.00018e-06 22.8815C-5.01984e-07 11.4841 10.9952 3.31513 21.9074 6.60526L186.907 56.354Z" fill="white"/>
<path d="M186.907 94.854C194.087 97.0186 199 103.632 199 111.13L199 161.169C199 168.524 194.27 175.045 187.278 177.329L22.2783 231.223C11.2894 234.813 -8.22315e-06 226.624 -7.71783e-06 215.063L-1.00018e-06 61.3815C-5.01984e-07 49.984 10.9952 41.8151 21.9074 45.1052L186.907 94.854Z" fill="#FB6161"/>
<path d="M186.907 143.854C194.087 146.019 199 152.632 199 160.13L199 210.169C199 217.524 194.27 224.045 187.278 226.329L22.2783 280.223C11.2894 283.813 -8.22315e-06 275.624 -7.71783e-06 264.063L-1.00018e-06 110.382C-5.01984e-07 98.984 10.9952 90.8151 21.9074 94.1052L186.907 143.854Z" fill="#DF0B0B"/>
</svg>
